<svg width="49" height="48" viewBox="0 0 49 48" fill="none" xmlns="http://www.w3.org/2000/svg">
<rect x="0.5" width="48" height="48" rx="24" fill="#437EF7"/>
<path d="M25.8333 19.8319C28.1336 19.2398 29.8333 17.1517 29.8333 14.6666C29.8333 11.7211 27.4455 9.33325 24.5 9.33325C21.5544 9.33325 19.1666 11.7211 19.1666 14.6666C19.1666 17.1517 20.8663 19.2398 23.1666 19.8319V22.6666H19.1666C16.9575 22.6666 15.1666 24.4574 15.1666 26.6666V28.1679C12.8663 28.76 11.1666 30.8481 11.1666 33.3333C11.1666 36.2788 13.5544 38.6666 16.5 38.6666C19.4455 38.6666 21.8333 36.2788 21.8333 33.3333C21.8333 30.8481 20.1336 28.76 17.8333 28.1679V26.6666C17.8333 25.9302 18.4302 25.3333 19.1666 25.3333H29.8333C30.5697 25.3333 31.1666 25.9302 31.1666 26.6666V28.1679C28.8663 28.76 27.1666 30.8481 27.1666 33.3333C27.1666 36.2788 29.5544 38.6666 32.5 38.6666C35.4455 38.6666 37.8333 36.2788 37.8333 33.3333C37.8333 30.8481 36.1336 28.76 33.8333 28.1679V26.6666C33.8333 24.4574 32.0424 22.6666 29.8333 22.6666H25.8333V19.8319Z" fill="white"/>
</svg>
